<?xml version="1.0" encoding="UTF-8"?>
<svg width="800px" height="600px" viewBox="0 0 800 600" version="1.1" xmlns="http://www.w3.org/2000/svg" xmlns:xlink="http://www.w3.org/1999/xlink">
    <title>Image Placeholder</title>
    <defs>
        <linearGradient x1="0%" y1="0%" x2="100%" y2="100%" id="linearGradient">
            <stop stop-color="#0B6E99" stop-opacity="0.2" offset="0%"></stop>
            <stop stop-color="#0B6E99" stop-opacity="0.4" offset="100%"></stop>
        </linearGradient>
    </defs>
    <g stroke="none" stroke-width="1" fill="none" fill-rule="evenodd">
        <rect fill="url(#linearGradient)" x="0" y="0" width="800" height="600"></rect>
        <rect stroke="#0B6E99" stroke-opacity="0.3" stroke-width="2" x="1" y="1" width="798" height="598" rx="4"></rect>
        <g transform="translate(250.000000, 250.000000)" fill="#0B6E99" fill-opacity="0.4">
            <path d="M150,0 C232.843,0 300,67.157 300,150 C300,232.843 232.843,300 150,300 C67.157,300 0,232.843 0,150 C0,67.157 67.157,0 150,0 Z M150,40 C89.249,40 40,89.249 40,150 C40,210.751 89.249,260 150,260 C210.751,260 260,210.751 260,150 C260,89.249 210.751,40 150,40 Z"></path>
            <path d="M280,120 L300,120 L300,180 L280,180 L280,120 Z M0,120 L20,120 L20,180 L0,180 L0,120 Z M150,290 L150,270 L210,270 L210,290 L150,290 Z M90,270 L150,270 L150,290 L90,290 L90,270 Z M150,10 L150,30 L90,30 L90,10 L150,10 Z M210,30 L150,30 L150,10 L210,10 L210,30 Z"></path>
        </g>
    </g>
</svg> 